<svg xmlns="http://www.w3.org/2000/svg" viewBox="0 0 64 64" fill="none">
  <rect width="64" height="64" rx="16" fill="#17120e"/>
  <rect x="7" y="7" width="50" height="50" rx="12" fill="#f3ede3" stroke="#2b221b" stroke-opacity="0.18"/>
  <path d="M20 23C20 19.6863 22.6863 17 26 17H42V23H28C26.8954 23 26 23.8954 26 25V27C26 28.1046 26.8954 29 28 29H38C42.4183 29 46 32.5817 46 37C46 41.4183 42.4183 45 38 45H20V39H36C37.1046 39 38 38.1046 38 37V35C38 33.8954 37.1046 33 36 33H26C22.6863 33 20 30.3137 20 27V23Z" fill="#17120e"/>
</svg>